<svg width="900" height="460" viewBox="0 0 900 460" xmlns="http://www.w3.org/2000/svg">

<style>
.axis { stroke:#333; stroke-width:1; }
.grid { stroke:#ccc; stroke-dasharray:3 3; }
.label { font-family:Arial, sans-serif; font-size:12px; fill:#444; }
.title { font-family:Arial, sans-serif; font-size:20px; font-weight:bold; fill:#333; }
.subtitle { font-family:Arial, sans-serif; font-size:13px; fill:#666; }
.legend { font-family:Arial, sans-serif; font-size:13px; fill:#333; }
.scale { font-family:Arial, sans-serif; font-size:11px; fill:#666; }
</style>

<!-- title -->
<text x="450" y="28" text-anchor="middle" class="title">
Contraintes physiques des sources d’énergie
</text>

<text x="450" y="46" text-anchor="middle" class="subtitle">
Territoire • Émissions de CO₂ • Ressources matérielles
</text>

<!-- axes -->
<line x1="60" y1="380" x2="840" y2="380" class="axis"/>
<line x1="60" y1="10" x2="60" y2="380" class="axis"/>

<!-- grid -->
<g class="grid">
<line x1="60" y1="100" x2="840" y2="100"/>
<line x1="60" y1="200" x2="840" y2="200"/>
<line x1="60" y1="300" x2="840" y2="300"/>
</g>

<!-- scale -->
<g class="scale">
<text x="30" y="380">0</text>
<text x="25" y="300">0.25</text>
<text x="25" y="200">0.5</text>
<text x="25" y="100">0.75</text>
<text x="30" y="20">1</text>
</g>

<!-- labels energy -->
<g class="label">
<text x="60" y="405">Biomasse</text>
<text x="140" y="405">Éolien terr.</text>
<text x="226" y="405">Éolien offshore</text>
<text x="330" y="405">Solaire PV</text>
<text x="427" y="405">Nucléaire</text>
<text x="535" y="405">Gaz</text>
<text x="620" y="405">Pétrole</text>
<text x="700" y="405">Charbon</text>
</g>

<!-- simple icons -->

<!-- BIOMASSE : feuille -->

<g transform="translate(65,330) scale(0.07)">
  <path fill="#4CAF50" d="M305.8,697.3c-7.3-21.8-12.8-44.2-15.9-67
  c-3.3-25.4-3.6-51-0.3-76.4c3.2-23.4,9.4-46.3,18.6-68.1
  c9.5-22.4,22-43.3,36.8-62.5c18.1-23.3,39.3-43.9,62.6-62
  c32.1-24.8,67.7-44.6,105-60.4c16.9-7.1,34.2-12.9,51.4-19.3
  c21.9-8.1,43.5-17.2,64.7-27.2c31.5-14.8,61.9-32.1,90.6-51.8
  c40.1-27.5,78.6-58.8,110.9-95.3
  c-16.3,21.1-35.6,40.1-55.5,57.7
  c-44.4,34.2-93.3,62.3-144.9,84.1
  c-21.9,9.2-44.5,16.5-66.7,25.2
  c-36.6,19.3-71.2,43.6-101.3,72
  c-28.1,26.5-52.9,58-70.5,92.4
  c-19.5,38.3-30.7,78.6-34.3,121.4
  c-4,47.7,4,97,19.2,142.3z"/>
</g>


<!-- ÉOLIEN TERRESTRE -->
<line x1="170" y1="360" x2="170" y2="330" stroke="#777" stroke-width="2"/>
<circle cx="170" cy="330" r="4" fill="#777"/>

<line x1="170" y1="330" x2="185" y2="340" stroke="#777"/>
<line x1="170" y1="330" x2="155" y2="340" stroke="#777"/>
<line x1="170" y1="330" x2="170" y2="310" stroke="#777"/>


<!-- ÉOLIEN OFFSHORE -->
<line x1="260" y1="360" x2="260" y2="330" stroke="#777" stroke-width="2"/>
<circle cx="260" cy="330" r="4" fill="#777"/>

<line x1="260" y1="330" x2="275" y2="340" stroke="#777"/>
<line x1="260" y1="330" x2="245" y2="340" stroke="#777"/>
<line x1="260" y1="330" x2="260" y2="310" stroke="#777"/>

<!-- SOLAIRE -->
<circle cx="355" cy="340" r="8" fill="#FFC107"/>

<line x1="355" y1="315" x2="355" y2="325" stroke="#FFC107"/>
<line x1="355" y1="355" x2="355" y2="365" stroke="#FFC107"/>
<line x1="340" y1="340" x2="330" y2="340" stroke="#FFC107"/>
<line x1="370" y1="340" x2="380" y2="340" stroke="#FFC107"/>


<!-- NUCLÉAIRE : symbole atomique -->
<circle cx="450" cy="330" r="3" fill="#9C27B0"/>

<ellipse cx="450" cy="330" rx="12" ry="6"
stroke="#9C27B0" fill="none"/>

<ellipse cx="450" cy="330" rx="12" ry="6"
stroke="#9C27B0" fill="none"
transform="rotate(60 450 330)"/>

<ellipse cx="450" cy="330" rx="12" ry="6"
stroke="#9C27B0" fill="none"
transform="rotate(-60 450 330)"/>


<!-- GAZ : flamme -->
<path d="M535 370
C530 355 545 350 540 335
C555 350 548 370 535 370 Z"
fill="#FF7043"/>


<!-- PÉTROLE : baril -->
<rect x="630" y="340" width="20" height="25"
fill="#444"/>

<line x1="630" y1="350" x2="630" y2="350"
stroke="#666"/>


<!-- CHARBON -->
<polygon points="710,360 720,340 735,345 730,365"
fill="#333"/>

<!-- territoire -->
<polyline fill="none" stroke="green" stroke-width="3"
points="
80,20
170,284
260,372
350,364
450,380
550,378
640,379
740,379
"/>

<!-- CO2 -->
<polyline fill="none" stroke="red" stroke-width="3"
points="
80,315
170,370
260,365
350,355
450,375
550,210
640,253
740,0
"/>

<!-- matériaux -->
<polyline fill="none" stroke="blue" stroke-width="3"
points="
80,350
170,210
260,100
350,140
450,372
550,372
640,372
740,369
"/>

<!-- legend -->
<rect x="700" y="60" width="140" height="80" fill="#f7f7f7" stroke="#ccc"/>

<circle cx="720" cy="85" r="5" fill="green"/>
<text x="740" y="90" class="legend">Territoire</text>

<circle cx="720" cy="105" r="5" fill="red"/>
<text x="740" y="110" class="legend">CO₂</text>

<circle cx="720" cy="125" r="5" fill="blue"/>
<text x="740" y="130" class="legend">Matériaux</text>

</svg>